{"title":"Krampus.2015.1080p.WEB-DL.DD5.1.H264-RARBG","uid":13697411,"size":3583352831,"categoryP":"video","categoryS":"hd___movies","magnet":"?xt=urn:btih:bb3f06a88a1cd0f05774fe3fcbef9d8522bda5f5&amp;dn=Krampus.2015.1080p.WEB-DL.DD5.1.H264-RARBG&amp;tr=udp%3A%2F%2Ftracker.leechers-paradise.org%3A6969&amp;tr=udp%3A%2F%2Fzer0day.ch%3A1337&amp;tr=udp%3A%2F%2Fopen.demonii.com%3A1337&amp;tr=udp%3A%2F%2Ftracker.coppersurfer.tk%3A6969&amp;tr=udp%3A%2F%2Fexodus.desync.com%3A6969","seeders":0,"leechers":3,"uploader":"DrahCir74","files":5,"time":1456710274,"description":"Movie: Krampus\r\nDetected quality: 1080p \nhttp://www.imdb.com/title/tt3850590/?ref_=nv_sr_1\r\nIMDb rating: 6.7 (12,091 votes)\r\nGenres: Comedy, Fantasy, Horror\r\n \r\nRelease date: 04 December 2015\r\nWriters: Todd Casey, Michael Dougherty, Zach Shields\r\nDirector: Michael Dougherty\r\nLanguage: English\r\nSubtitles: English\r\nCast: Allison Tolman, Emjay Anthony and others Summary:\r\n\r\nA boy who has a bad Christmas ends up accidentally summoning a Christmas demon to his family home.\r\n\r\n\r\nMediainfo :\r\n\r\nVideo\r\nID : 1\r\nFormat : AVC\r\nFormat/Info : Advanced Video Codec\r\nFormat profile :   \r\nFormat settings, CABAC : Yes\r\nFormat settings, ReFrames : 5 frames\r\nFormat settings, GOP : N=1\r\nCodec ID : V_MPEG4/ISO/AVC\r\nDuration : 1h 37mn\r\nBit rate : 4 408 Kbps\r\nWidth : 1 916 pixels\r\nHeight : 800 pixels\r\nDisplay aspect ratio : 2.40:1\r\nFrame rate mode : Constant\r\nFrame rate : 23.976 fps\r\nColor space : YUV\r\nChroma subsampling : 4:2:0\r\nBit depth : 8 bits\r\nScan type : Progressive\r\nBits/(Pixel*Frame) : 0.120\r\nStream size : 3.01 GiB (90%)\r\nTitle : Krampus.2015.1080p.WEB-DL.DD5.1.H264-RARBG\r\nLanguage : English\r\nDefault : Yes\r\nForced : No\r\nColor range : Limited\r\nColor primaries : BT.709\r\nTransfer characteristics : BT.709\r\nMatrix coefficients : BT.709\r\n\r\nAudio\r\nID : 2\r\nFormat : AC-3\r\nFormat/Info : Audio Coding 3\r\nMode extension : CM (complete main)\r\nFormat settings, Endianness : Big\r\nCodec ID : A_AC3\r\nDuration : 1h 37mn\r\nBit rate mode : Constant\r\nBit rate : 384 Kbps\r\nChannel(s) : 6 channels\r\nChannel positions : Front: L C R, Side: L R, LFE\r\nSampling rate : 48.0 KHz\r\nFrame rate : 31.250 fps (1536 spf)\r\nCompression mode : Lossy\r\nStream size : 268 MiB (8%)\r\nTitle : Krampus.2015.1080p.WEB-DL.DD5.1.H264-RARBG\r\nLanguage : English\r\nDefault : Yes\r\nForced : No\r\n\r\nText\r\nID : 3\r\nFormat : UTF-8\r\nCodec ID : S_TEXT/UTF8\r\nCodec ID/Info : UTF-8 Plain Text\r\nLanguage : English\r\nDefault : Yes\r\nForced : No\r\n\r\nMenu\r\n00:00:00.000 : en:1\r\n00:03:21.000 : en:2\r\n00:07:18.000 : en:3\r\n00:14:20.000 : en:4\r\n00:20:03.000 : en:5\r\n00:27:28.000 : en:6\r\n00:34:17.000 : en:7\r\n00:37:46.000 : en:8\r\n00:42:03.000 : en:9\r\n00:45:13.000 : en:10\r\n00:50:31.000 : en:11\r\n00:56:08.000 : en:12\r\n01:00:26.000 : en:13\r\n01:05:36.000 : en:14\r\n01:10:00.000 : en:15\r\n01:14:40.000 : en:16\r\n01:18:32.000 : en:17\r\n01:23:19.000 : en:18\r\n01:27:41.000 : en:19\r\n01:32:28.000 : en:20\r\n\r\n\r\n\r\nI didn't didn't do anything to this, just made a torrent","torrent":{"xt":"urn:btih:bb3f06a88a1cd0f05774fe3fcbef9d8522bda5f5","amp;dn":"Krampus.2015.1080p.WEB-DL.DD5.1.H264-RARBG","amp;tr":["udp%3A%2F%2Ftracker.leechers-paradise.org%3A6969","udp%3A%2F%2Fzer0day.ch%3A1337","udp%3A%2F%2Fopen.demonii.com%3A1337","udp%3A%2F%2Ftracker.coppersurfer.tk%3A6969","udp%3A%2F%2Fexodus.desync.com%3A6969"],"infoHash":"bb3f06a88a1cd0f05774fe3fcbef9d8522bda5f5","infoHashBuffer":{"type":"Buffer","data":[187,63,6,168,138,28,208,240,87,116,254,63,203,239,157,133,34,189,165,245]},"announce":[],"urlList":[]}}